HIERARCHY
ROOT Hips
{
 OFFSET 0.000000 0.000000 0.000000
 CHANNELS 6 Xposition Yposition Zposition Yrotation Xrotation Zrotation
 JOINT Chest
 {
  OFFSET 0.000000 9.857222 0.000240
  CHANNELS 3 Yrotation Xrotation Zrotation
  JOINT Chest2
  {
   OFFSET 0.000000 10.876940 -0.000436
   CHANNELS 3 Yrotation Xrotation Zrotation
   JOINT Chest3
   {
    OFFSET 0.000000 9.827798 0.000000
    CHANNELS 3 Yrotation Xrotation Zrotation
    JOINT Chest4
    {
     OFFSET 0.000000 9.827798 0.000000
     CHANNELS 3 Yrotation Xrotation Zrotation
     JOINT Neck
     {
      OFFSET 0.000000 13.831992 0.000000
      CHANNELS 3 Yrotation Xrotation Zrotation
      JOINT Head
      {
       OFFSET 0.000000 9.147643 -0.001036
       CHANNELS 3 Yrotation Xrotation Zrotation
       End Site
       {
        OFFSET 0.000000 17.515799 -0.000541
       }
      }
     }
     JOINT RightCollar
     {
      OFFSET -3.001579 7.717577 0.000000
      CHANNELS 3 Yrotation Xrotation Zrotation
      JOINT RightShoulder
      {
       OFFSET -14.002642 0.000000 0.000000
       CHANNELS 3 Yrotation Xrotation Zrotation
       JOINT RightElbow
       {
        OFFSET -30.053852 0.000000 0.000000
        CHANNELS 3 Yrotation Xrotation Zrotation
        JOINT RightWrist
        {
         OFFSET -24.564923 0.000000 -0.000000
         CHANNELS 3 Yrotation Xrotation Zrotation
         End Site
         {
          OFFSET -18.334355 0.000000 0.000000
         }
        }
       }
      }
     }
     JOINT LeftCollar
     {
      OFFSET 3.001579 7.717577 0.000000
      CHANNELS 3 Yrotation Xrotation Zrotation
      JOINT LeftShoulder
      {
       OFFSET 14.002642 0.000000 0.000000
       CHANNELS 3 Yrotation Xrotation Zrotation
       JOINT LeftElbow
       {
        OFFSET 30.053852 0.000000 0.000000
        CHANNELS 3 Yrotation Xrotation Zrotation
        JOINT LeftWrist
        {
         OFFSET 24.564923 0.000000 -0.000000
         CHANNELS 3 Yrotation Xrotation Zrotation
         End Site
         {
          OFFSET 18.334355 0.000000 0.000000
         }
        }
       }
      }
     }
    }
   }
  }
 }
 JOINT RightHip
 {
  OFFSET -8.003235 -0.001175 -0.000120
  CHANNELS 3 Yrotation Xrotation Zrotation
  JOINT RightKnee
  {
   OFFSET 0.000000 -41.759727 0.000113
   CHANNELS 3 Yrotation Xrotation Zrotation
   JOINT RightAnkle
   {
    OFFSET 0.000000 -40.728748 0.000159
    CHANNELS 3 Yrotation Xrotation Zrotation
    JOINT RightToe
    {
     OFFSET 0.000000 -6.515296 14.732841
     CHANNELS 3 Yrotation Xrotation Zrotation
     End Site
     {
      OFFSET 0.000000 -1.502839 6.412115
     }
    }
   }
  }
 }
 JOINT LeftHip
 {
  OFFSET 8.003235 -0.001175 -0.000120
  CHANNELS 3 Yrotation Xrotation Zrotation
  JOINT LeftKnee
  {
   OFFSET 0.000000 -41.759727 0.000113
   CHANNELS 3 Yrotation Xrotation Zrotation
   JOINT LeftAnkle
   {
    OFFSET 0.000000 -40.728748 0.000159
    CHANNELS 3 Yrotation Xrotation Zrotation
    JOINT LeftToe
    {
     OFFSET 0.000000 -6.515296 14.732841
     CHANNELS 3 Yrotation Xrotation Zrotation
     End Site
     {
      OFFSET 0.000000 -1.502839 6.412115
     }
    }
   }
  }
 }
}
MOTION
Frames: 14
Frame Time: 0.016667
5.921850 89.717857 17.713212 -29.714562 -6.974440 0.966337 0.347317 0.456577 -2.871060 0.311559 0.180543 -1.184832 0.311559 0.180543 -1.184832 0.234020 0.134804 -0.888716 -2.231634 27.202452 1.612510 -4.316533 14.421291 3.345641 10.023805 21.737320 18.234743 12.735432 3.947153 70.976588 154.597266 -39.053787 -20.804428 5.239393 -3.552316 -7.167196 -21.170855 34.472778 -11.996193 -62.369167 5.491197 21.077337 -30.080174 1.245393 8.563158 6.903909 6.667403 17.540284 -14.090838 10.134048 -10.170066 6.711749 1.871377 2.108283 -0.944441 -8.377253 1.622387 -0.205127 0.644224 -0.124103 -13.668357 9.548227 1.638470 17.071265 14.742524 -3.150720 0.905949 -13.681962 -1.667263 0.178189 0.550261 0.015214
5.849049 89.767176 17.738536 -28.773262 -6.659396 0.900686 0.396712 0.163649 -2.699653 0.314294 0.089983 -1.117693 0.314294 0.089983 -1.117693 0.235886 0.066913 -0.838316 -2.598086 27.195492 1.560584 -4.958074 14.422700 3.330974 9.340036 21.858978 17.661418 15.669115 1.116803 68.715609 151.956040 -35.857654 -19.715683 5.180955 -3.510049 -8.368067 -21.314305 34.388528 -12.308373 -61.413017 6.266731 19.206638 -35.075772 0.168285 12.849094 7.399317 6.608543 17.773771 -13.778765 10.161396 -9.978258 6.035740 1.778057 2.200223 -1.105036 -8.144875 1.683799 -0.318191 0.331247 -0.239969 -12.962011 9.256567 2.085927 16.242972 14.553847 -3.177276 0.123184 -13.337347 -1.649238 0.386130 0.406937 0.074875
5.838422 89.800502 17.719199 -27.816873 -6.121799 0.816997 0.479874 -0.167077 -2.522348 0.330217 -0.026567 -1.047185 0.330217 -0.026567 -1.047185 0.247618 -0.020491 -0.785374 -2.958220 27.177336 1.522131 -5.591590 14.404575 3.339340 8.673987 21.981102 17.133992 19.261457 -1.697959 65.874191 148.851549 -31.600850 -18.867865 5.140082 -3.520219 -9.187127 -21.282859 33.915335 -12.356929 -60.166745 7.297119 16.866701 -41.471992 -1.554313 18.034201 8.057948 6.692320 18.097905 -13.308731 9.889001 -9.638768 5.468322 1.804024 2.211102 -1.363748 -7.977331 1.781620 -0.394087 0.076032 -0.340858 -12.326169 8.699133 2.569822 15.170374 14.340782 -3.299780 -0.351593 -13.039600 -1.590885 0.572778 0.356975 0.134257
5.839814 89.824016 17.676444 -27.138851 -5.809662 0.691808 0.726880 -0.377924 -2.252379 0.397710 -0.111278 -0.956426 0.397710 -0.111278 -0.956426 0.298109 -0.084081 -0.717247 -3.321776 27.178573 1.468675 -6.227469 14.422568 3.320819 8.169512 22.187938 16.665594 23.084108 -4.457410 62.369143 145.130418 -26.637154 -18.577250 5.034883 -3.682697 -9.702322 -21.431817 33.309967 -12.555402 -58.545943 8.119772 14.299113 -49.229936 -3.089711 23.569338 8.654599 6.716389 18.494457 -12.481241 9.773445 -9.214339 4.811393 1.921814 2.167974 -1.577428 -7.822888 1.867924 -0.409062 -0.148147 -0.411258 -11.577833 8.349961 3.009017 14.011097 14.177654 -3.420562 -0.585091 -12.825776 -1.548722 0.729564 0.344115 0.187102
5.818408 89.855539 17.649151 -26.857651 -5.889446 0.546951 1.136199 -0.385128 -1.891953 0.488785 -0.140195 -0.831155 0.488785 -0.140195 -0.831155 0.366399 -0.105811 -0.623255 -3.643102 27.182388 1.364907 -6.777447 14.440437 3.203616 7.823445 22.648389 16.075572 27.244741 -7.262030 58.183451 140.815242 -21.610654 -18.842460 4.843685 -3.681691 -10.782193 -21.471438 32.603546 -12.847511 -57.162734 8.790623 10.817227 -57.687546 -3.409354 29.326411 9.081696 6.290775 18.919485 -11.347259 9.994710 -8.794526 3.965556 2.078637 2.111265 -1.640379 -7.608825 1.906506 -0.351502 -0.394318 -0.432995 -10.410991 8.429019 3.318856 12.872440 14.001295 -3.370972 -0.697693 -12.633903 -1.532265 0.739616 0.307915 0.174623
5.785638 89.892239 17.590579 -26.817256 -6.095841 0.409841 1.590661 -0.314837 -1.534322 0.620877 -0.112416 -0.692293 0.620877 -0.112416 -0.692293 0.465531 -0.085015 -0.519106 -3.926067 27.137833 1.275590 -7.263686 14.367567 3.106554 7.501911 23.039882 15.443161 31.444291 -10.247854 53.289158 135.974622 -17.633379 -19.346353 4.282307 -3.290076 -13.027491 -21.337834 31.852845 -12.985889 -56.639648 8.060290 5.842242 -66.536899 -1.704102 33.858926 9.176951 5.619454 19.258188 -10.167083 10.286106 -8.378147 2.952207 2.213714 2.043814 -1.516330 -7.338311 1.896984 -0.263750 -0.617162 -0.413376 -9.386068 8.738814 3.598960 12.304770 13.690531 -3.354595 -0.967831 -12.405595 -1.483391 0.735285 0.306313 0.159060
5.717248 89.925125 17.515879 -26.882646 -6.392758 0.205434 2.052984 -0.109116 -1.137867 0.809829 -0.079240 -0.553334 0.809829 -0.079240 -0.553334 0.607300 -0.060163 -0.414896 -4.206302 27.051201 1.205903 -7.750556 14.218063 3.046449 7.249318 23.267943 15.040835 36.054623 -12.922448 47.475991 130.582662 -14.665541 -20.332740 3.250227 -2.478208 -15.862304 -21.628683 31.181580 -13.278274 -55.514940 6.578560 0.210399 -76.873768 0.327639 36.681173 8.925359 5.393197 19.409013 -9.138515 10.634610 -7.852959 2.282135 2.325460 1.893395 -1.644976 -7.100008 1.847433 -0.072314 -0.768384 -0.331402 -9.173774 9.163004 3.803343 12.409602 13.467238 -3.310517 -1.008335 -12.245914 -1.488736 0.715840 0.315278 0.133395
5.626001 89.945088 17.402681 -27.263721 -6.572021 0.008437 2.669479 -0.017278 -0.740035 1.025602 -0.090193 -0.407190 1.025602 -0.090193 -0.407190 0.769141 -0.068329 -0.305242 -4.457711 26.975002 1.114558 -8.181173 14.084853 2.941557 6.831063 23.633391 14.617007 41.549467 -15.003372 40.962477 124.216626 -11.694839 -20.908087 2.079977 -1.628249 -18.519236 -21.689156 30.662629 -13.362672 -53.410853 5.667405 -5.763380 -88.820626 1.943177 38.138154 8.525068 5.625969 19.404545 -8.114179 10.820921 -7.370551 1.770544 2.363430 1.741065 -1.539070 -6.872018 1.892082 -0.042922 -0.825395 -0.321318 -8.969205 9.523483 4.101715 12.456688 13.253616 -3.471654 -0.823991 -12.143234 -1.455693 0.734541 0.349616 0.120393
5.495282 89.960641 17.287431 -27.937596 -6.744712 -0.168647 3.269655 -0.025195 -0.276400 1.232521 -0.157595 -0.230654 1.232521 -0.157595 -0.230654 0.924331 -0.118662 -0.172673 -4.645505 26.964155 0.927238 -8.475843 14.061758 2.648746 6.491569 23.872973 14.084354 47.360547 -16.057793 34.399654 115.732813 -7.543927 -21.049413 1.611667 -0.316029 -19.274526 -21.658398 30.490666 -13.689384 -50.359695 4.873148 -12.268442 -100.275802 4.272612 37.410259 7.940127 6.050673 19.260922 -7.155395 10.964686 -6.931933 1.404345 2.335885 1.618071 -1.333281 -6.631731 1.912808 -0.017054 -0.824600 -0.314679 -8.595109 9.968199 4.450903 12.434182 12.977546 -3.777025 -0.495547 -12.054624 -1.356386 0.703581 0.387204 0.085196
5.387370 89.979921 17.200227 -28.830965 -6.906006 -0.220807 3.817561 -0.152580 0.151728 1.428775 -0.269921 -0.033595 1.428775 -0.269921 -0.033595 1.071565 -0.202521 -0.024565 -4.785945 27.030587 0.655708 -8.665944 14.172576 2.191338 6.578659 24.352781 13.612176 53.294189 -16.818982 27.923440 104.125098 -0.574176 -21.239380 1.797060 1.275955 -18.087324 -21.595071 30.769548 -14.325660 -46.655183 4.408872 -19.322643 -109.691066 8.120533 34.767950 6.832762 5.048576 19.153221 -6.427001 11.059146 -6.719341 1.235249 2.242906 1.557367 -1.032167 -6.371424 1.937814 0.004972 -0.787178 -0.315111 -8.655302 10.393367 4.463173 12.933632 12.774415 -3.959904 0.087763 -11.969955 -1.216530 0.494217 0.365016 -0.025768
5.286049 90.011807 17.160186 -29.920995 -7.127730 -0.248938 4.510972 -0.232571 0.513472 1.678072 -0.372486 0.132506 1.678072 -0.372486 0.132506 1.258630 -0.279003 0.100403 -4.931149 27.100926 0.443334 -8.877406 14.295124 1.839798 6.564736 24.725764 13.182379 59.397908 -17.745772 21.867085 90.133730 8.927739 -20.853719 2.547827 2.797379 -17.495248 -21.710816 31.253388 -14.988324 -42.805395 4.278422 -26.921714 -117.726495 12.610529 30.650356 5.038882 1.595777 19.304013 -5.953473 11.179558 -6.657249 1.347251 2.107232 1.573635 -0.673597 -6.018355 1.956915 0.023481 -0.799288 -0.315711 -8.499257 10.906977 4.426776 13.513505 12.573788 -4.105883 0.576634 -11.872769 -1.050685 0.263967 0.294931 -0.143213
5.189386 90.043825 17.143665 -31.165014 -7.081253 -0.296083 5.264108 -0.404666 0.809478 1.930988 -0.538040 0.250017 1.930988 -0.538040 0.250017 1.448450 -0.402745 0.189214 -5.021006 27.176263 0.285733 -9.002124 14.427867 1.573616 6.711385 25.272982 12.863431 65.288813 -19.370972 15.868724 75.429455 19.618734 -17.985009 3.585268 4.435773 -20.059828 -21.591408 31.796522 -15.516917 -39.130447 4.206408 -34.767898 -127.261674 13.069236 25.256981 3.340396 -0.786188 19.871415 -5.719166 11.012637 -6.662857 1.647094 1.930477 1.699743 -0.255060 -5.632413 1.948434 0.033438 -0.808763 -0.324451 -7.903129 11.161635 4.553207 13.991438 12.400389 -4.285759 0.849346 -11.777710 -0.863387 0.076792 0.196835 -0.240668
5.107314 90.062422 17.127038 -32.558713 -6.847100 -0.351127 5.964546 -0.680480 1.045819 2.178481 -0.732787 0.338772 2.178481 -0.732787 0.338772 1.634245 -0.548391 0.256691 -5.050388 27.239026 0.168033 -9.028106 14.537053 1.366507 7.210025 26.175170 12.665777 71.197990 -21.550380 9.695884 62.988446 31.365161 -13.726326 3.079795 5.136455 -22.654266 -21.320580 32.425646 -16.094542 -34.815614 4.031205 -41.798288 -136.942378 7.484139 20.766159 2.106917 -0.906576 20.005864 -5.588512 10.592674 -6.722214 2.228589 1.792405 1.924399 0.084236 -5.286615 1.900642 0.028067 -0.778590 -0.328954 -7.251022 11.176882 4.729110 14.504104 12.389870 -4.461632 1.096415 -11.788991 -0.705678 -0.041575 0.103621 -0.313034
5.071790 90.075749 17.065451 -34.324895 -6.355075 -0.466987 6.961711 -1.362060 1.338260 2.414618 -0.914412 0.449095 2.414618 -0.914412 0.449095 1.811598 -0.684048 0.340433 -5.121982 27.322328 0.079844 -9.135268 14.688663 1.219283 7.634004 27.765611 12.216419 77.988803 -23.956205 3.429066 51.982023 41.558740 -9.078443 3.019432 5.456899 -23.691898 -20.905862 33.981380 -16.960230 -30.248217 4.454470 -46.525742 -144.548285 -0.771079 19.836998 0.986803 -1.427006 19.213942 -5.148924 9.808025 -6.696141 3.020595 1.663304 2.207874 0.330741 -4.836228 1.854556 -0.007699 -0.773535 -0.351889 -6.212009 10.891815 5.033322 14.793084 12.478277 -4.695302 1.556032 -11.917562 -0.501683 -0.199162 0.060098 -0.408204
